<svg width="22" height="22" viewBox="0 0 22 22" fill="none" xmlns="http://www.w3.org/2000/svg">
<g clip-path="url(#clip0_1641_42)" filter="url(#filter0_d_1641_42)">
<path fill-rule="evenodd" clip-rule="evenodd" d="M17.8536 0.146461C17.9933 0.286181 18.0376 0.49508 17.9667 0.679504L12.9667 13.6795C12.8944 13.8675 12.7162 13.9938 12.5149 13.9998C12.3135 14.0058 12.1282 13.8903 12.0448 13.7069L9.95386 9.1068L13.0303 6.03033C13.3232 5.73744 13.3232 5.26256 13.0303 4.96967C12.7374 4.67678 12.2626 4.67678 11.9697 4.96967L8.89319 8.04615L4.2931 5.9552C4.10969 5.87183 3.99423 5.68653 4.00022 5.48515C4.00621 5.28378 4.13247 5.10566 4.32051 5.03334L17.3205 0.0333416C17.5049 -0.0375906 17.7138 0.00674078 17.8536 0.146461Z" fill="white"/>
</g>
<defs>
<filter id="filter0_d_1641_42" x="0" y="0" width="22" height="22" filterUnits="userSpaceOnUse" color-interpolation-filters="sRGB">
<feFlood flood-opacity="0" result="BackgroundImageFix"/>
<feColorMatrix in="SourceAlpha" type="matrix" values="0 0 0 0 0 0 0 0 0 0 0 0 0 0 0 0 0 0 127 0" result="hardAlpha"/>
<feOffset dy="4"/>
<feGaussianBlur stdDeviation="2"/>
<feComposite in2="hardAlpha" operator="out"/>
<feColorMatrix type="matrix" values="0 0 0 0 0 0 0 0 0 0 0 0 0 0 0 0 0 0 0.25 0"/>
<feBlend mode="normal" in2="BackgroundImageFix" result="effect1_dropShadow_1641_42"/>
<feBlend mode="normal" in="SourceGraphic" in2="effect1_dropShadow_1641_42" result="shape"/>
</filter>
<clipPath id="clip0_1641_42">
<rect width="14" height="14" fill="white" transform="translate(4)"/>
</clipPath>
</defs>
</svg>
